<?xml version="1.0" standalone="no"?><!DOCTYPE svg PUBLIC "-//W3C//DTD SVG 1.1//EN" "http://www.w3.org/Graphics/SVG/1.1/DTD/svg11.dtd"><svg t="1726049916158" class="icon" viewBox="0 0 1024 1024" version="1.1" xmlns="http://www.w3.org/2000/svg" p-id="4396" xmlns:xlink="http://www.w3.org/1999/xlink" width="200" height="200"><path d="M755.49706478 1001.35105083c0.68672942 0.80400977 1.36780567 1.61649788 2.04040496 2.43322519-0.38999502-0.91846489-1.12194007-1.72247466-2.04040496-2.43322519zM19.33329074 355.53879186c0.10456417 0.14554199 0.38292925 0.77009769 0.7955314 1.70975849-0.42531969-1.07107127-0.72346809-1.77334343-0.7955314-1.70975849zM802.64116324 770.49983541c-3.81092321 8.18988153-5.81317694 14.72228596-6.68925138 18.00756449 24.5964909-19.2934159 52.0896793-34.43536979 78.54570849-43.92381887 35.69861267-13.06763684 68.80432803-16.98453681 92.20822675-17.88745758 23.52400703-0.89585637 37.72206092 0.7178163 37.72206092 0.56097073-0.50586275 0.12575869-3.25136645 0.03391209-7.80977747 0.00989096 2.23116259 0.10597678 4.47504414 0.18793244 6.62283846 0.37586349 0.94248599-0.22467108 1.42574025-0.3207569 1.42574025-0.32075551s-58.95555818-26.21440275-124.55232277-29.5533753c-11.33385724 4.82264733-32.73974283 15.36097317-50.10720752 33.46462211-12.32579945 12.32721204-21.9484856 27.33634284-27.36601573 39.26649548z" fill="#afcd50" p-id="4397"></path><path d="M833.16528483 768.07650119c-5.58426666 3.14538971-11.00179679 6.5677305-16.33454467 10.11017959 2.22127165-0.65846914 5.28188046-1.56845567 8.92465178-2.58017979 6.87435724-4.37471914 13.97621077-8.71976539 21.57544869-12.91079127 27.19786659-14.99217407 76.13932961-30.19630031 119.48522242-34.44102158-5.68176507 0.39282022-11.85102356 0.97498546-18.48657957 1.7846484-32.41050756 3.80809663-75.70977075 14.9907601-115.16419865 38.03716465z" fill="#afcd50" p-id="4398"></path><path d="M996.55878338 727.27404951l0.0748899-0.00282519c-9.37964711-0.40695037-19.42482638-0.02402111-29.81619763 0.9947674-43.3487194 4.24189468-92.29018242 19.43613133-119.48804763 34.44526074-7.59923792 4.1867867-14.70815583 8.53183296-21.57544867 12.91079128 11.33385724-3.14115052 28.19263399-7.32511062 42.75383658-8.88084877 12.04178119-1.37345885 17.29822658-0.27271329 25.80745102 1.68149683 8.60672286 1.80160373 13.51839023 5.09253543 13.50708667 5.16883794-13.82642958-7.19793934-38.34520401-6.9379422-58.53164972-3.27114841-9.02639075 1.58965019-17.2402934 3.5919039-23.5748758 5.3228583-69.57442572 44.35761693-102.7677485 96.60414179-116.13635895 123.31310099a209.6290231 209.6290231 0 0 0-3.15527926 6.52110226h-0.00141398a215.68947825 215.68947825 0 0 1 3.15810724-6.52251487l-2.8260468-6.08447623 0.00423919-0.00989235 2.82039361 6.08447764c13.36861042-26.70896057 46.56193322-78.9455931 116.13635895-123.30179744a275.92664864 275.92664864 0 0 0-8.93878332 2.58724418c-28.32969763 18.9020083-52.85553781 42.78916126-70.50702075 64.81253813l25.34115487-33.05767174c7.56815104-7.54695514 15.65770758-14.64739606 24.09769256-21.27023593 1.57693403-10.75027938 2.56463705-23.44911574 10.45354497-35.79893629 8.43150797-13.24709091 24.89746449-25.87527653 36.55631642-34.70101868 14.27718436-10.93538525 28.02448486-17.1894246 36.56055701-20.48459412-82.89357994-3.96776878-175.95668525 28.96131907-173.8385638 197.54909066a0.09325922 0.09325922 0 0 1-0.01695675 0.0310855v0.02684769c-2.53637677 4.34504625-8.83987231 13.19339553-19.37537155 16.9167113a634.33144714 634.33144714 0 0 1-12.33145122-18.01321629c-0.00423919 0-0.00989097 0-0.01413015-0.00282658-4.81558294-7.35478491-9.07160778-14.32240135-12.54764394-20.66263556 16.80932193-52.44434827 146.99819276-451.07649756-146.60254596-577.20010121-367.39303799-157.80216614-438.92873959-238.69631895-450.55367946-271.85996885v-0.00282521c-0.95803013-2.80626348-1.4116101-4.29982923-1.4116101-4.29982922s-50.25274951 189.97952563-35.06275207 392.69462765c17.487573 33.23430062 54.44518799 95.52600475 110.72730581 142.8961869 38.50204957 33.77124886 83.37824679 58.31263179 118.22056693 71.01853528 23.96204425 9.02073897 42.66905435 12.97155103 52.05152804 14.55837465-62.23801014-69.18019152-114.11573589-148.64153831-150.08140869-226.79160002-49.22830785-105.36205843-72.31710284-205.81809989-83.49270193-277.4823854-11.19820758-71.99917253-12.03471682-116.18298855-12.45579731-116.13211973 0.5468392 1.49639097 1.29574236 9.95192142 2.92495778 23.98182617l0.0014126 0.0240211c0.12575869 1.09650637 0.27977906 2.35833529 0.41401612 3.5212532-0.13564965-1.16009132-0.28967003-2.41768243-0.41401612-3.50853565 2.37246543 28.92175385 7.14707054 59.71293833 13.82925617 91.29824022l0.00989096 0.05086879c3.19625849 17.33920442 7.07924501 36.09991124 11.75493775 56.19733692 22.53206482 98.35346414 69.37518833 227.71006492 147.44612094 341.27472103 10.74462623 16.1240051 22.18022107 31.65595399 33.92526923 46.86573341a1564.01860847 1564.01860847 0 0 1-10.41680633-26.56341857c-14.61065742-19.65373665-29.19164194-40.04789673-43.55784497-62.02464399-27.14841039-41.53298413-56.71167665-101.7334145-82.65760529-168.72342124 25.94451467 66.99000675 55.51343408 127.19043711 82.66890886 168.72342124 14.3633792 21.97533328 28.94436235 42.36101637 43.55501977 62.02605659-12.83872656-33.77124886-38.31694371-81.77022589-48.01875896-125.99643233-8.23085937-36.57468714-9.05747763-59.96163053-6.88000902-86.79352321 1.77475743-27.07917228 29.01642705-98.82541344 29.21283647-98.81552247-14.68413472 44.88608819-15.27195175 180.22542762 2.36116187 241.04193668 7.69390973 27.22471427 16.27095971 51.77457419 23.39683433 70.67658249 0.01413014 0.01836933 0.0296729 0.03532606 0.04097784 0.05228276a1121.92045808 1121.92045808 0 0 0 10.42528331 26.53091911c31.73084389 39.0630203 68.92019577 74.81956614 107.0802939 106.94323026 58.28578411 55.86951565 114.69366196 96.77229092 162.47785887 126.52207702l-49.70308234-26.12114216c-70.40810836-44.47348466-161.83210865-122.30561605-183.18571146-146.05429416-30.17369317-1.25476452-65.49078921-0.08195567-102.40460117-20.21046681-39.59572937-21.50055741-80.47307092-67.90140588-109.09667776-100.81495098-35.3990517-40.23724176-57.72481475-80.42078954-69.97431033-105.5514021 19.8897113 256.00302389 144.96767875 530.89675251 607.59281369 468.6785243 20.85056662 24.42268861 51.09208532 68.51324539 47.0607302 115.31821765 0 0 60.14673637-8.29161913 73.11828602 1.80443033-7.65293191-9.12671575-36.08578111-43.27665469-61.2573715-77.69224254l0.00423919-0.00423781c-0.94955177-1.29574236-1.87649502-2.58724555-2.81332924-3.88157531 5.11938174-5.49242003 11.32679149-11.35787835 16.2709597-13.63143138 16.15650458 8.28879253 139.09374207 70.80375516 190.92059903-28.8836026 64.84221102-124.7388426 93.55201133-146.8583039 104.64424216-149.58261311-2.14072996-0.18793244-4.38884928-0.2741259-6.62425106-0.37869008h-0.06782554z m-175.22050101-12.31590708c-0.44792819 0.52281809-8.51487622 5.76513333-18.55440371 15.96998473-2.40920407 2.39931312-5.20557658 5.14340422-8.17999056 8.12912178 14.14153332-15.9756379 26.91243574-24.14008435 26.73439427-24.09910651z m-54.47203569 58.41578196c6.93935618-12.61264288 18.18701858-24.71235862 27.65003397-34.22200362a157.85162234 157.85162234 0 0 0-12.82035725 16.56486893c-18.5515785 26.38396449-32.32148752 63.00952043-36.70751159 87.09167019-0.23173547 0.13847625 3.0224562-36.18610471 21.87783487-69.4345355z m-489.17583595-37.53554244c-37.33630646-17.15833773-74.86195659-47.7319155-104.53826536-73.67501758-49.341349-38.21520612-76.64519237-74.82098012-76.46008652-74.29674805 1.59954254 1.20672093 19.03483275 24.27573402 50.85752328 51.71381442 7.54695514 6.65957712 16.17911309 14.39587868 25.60256324 22.58152103 14.87913153 11.49494199 31.68703949 23.15803311 50.47600662 33.98602762 79.48960709 48.25756018 185.41122228 78.39875389 253.29143362 83.84171911 0.47618848 0.65140338-100.73158134 2.7751766-199.22917488-44.15131655z m411.98097779 193.44143165c-0.01978193 0.00989097-0.02402111 0.02684769-0.04239042 0.03391344 0-0.00282658 0.67683846-0.87042269 1.80160511-2.28909714-0.00141261 0.01695673-0.01413014 0.0296729-0.01695672 0.045217-1.02868085 1.31411169-1.65747571 2.1039913-1.74225797 2.2099667z m-17.35192195-35.10231589c-0.72488067-0.0226085-1.441283-0.02684769-2.21420724-0.10880336l-0.01695536-0.01978192c0.78140125 0.09749841 1.49780495 0.10173759 2.2311626 0.12858528z m-20.41676858-30.79683627c0.45781916 0.19358422 0.93683422 0.398472 1.38476242 0.58640444l-1.38476242-0.58640444z m-59.85423976-164.59315511c0.40271119 70.943644-44.47631124 84.21616862-47.25855361 92.80311092 7.16685246-25.44854426 25.90212422-20.72480793 27.77861925-87.69927194 1.62073707-57.94100749-42.16319297-163.32426045-41.5343981-163.2112179 2.1054039 0.56944771 52.41467399 67.02674539 61.01433246 158.10737892z m-171.00686661-214.81199119c-5.76372074-18.67309803-5.6718741-32.65354797-8.08672998-40.84342813-0.00989097-0.1031502 6.14806258 17.82952442 13.13970017 42.25786482 15.72411911 50.72328622 37.36739196 126.42033941 29.64522191 153.76657183-9.51670939 38.52465807-48.54723021 43.41089174-48.22929989 43.03078908 0.41401612-0.74466259 9.95050742-7.38304519 19.11820102-21.54153524 9.23834431-14.02425297 13.68230157-18.23223558 16.22998188-41.11331622 3.51842661-27.7164455-11.21798951-98.6092207-21.81707511-135.55694614z m286.64583978 422.14202617c1.79453935-0.81390073 3.45908082-1.22650423 4.8028654-0.88596543v0.00282659c-1.34943636-0.33771225-3.00832607 0.07065072-4.8028654 0.88313884z m54.75888051-12.70166294c-22.10957035 1.12900583-42.07699813-12.89242195-41.89330625-12.99839871 12.96166006 4.81982075 34.23189459 9.10269463 52.71706156 5.81741609 18.56429605-2.70452588 32.2508368-12.62677302 32.18866306-12.40210331-0.2713007 0.7178163-20.73611149 19.65514926-43.01241837 19.58308593z m78.9696142-56.05179492c-16.86866771 3.43929753-41.97808713 7.91010247-50.45481071 3.96211563-11.98384801-5.07275213-12.03471682-19.26798082-11.92874005-19.13374376 0.23173547 0.17097572 1.99236274 3.88016133 6.1692585 7.77162623 4.1415697 3.92113917 10.82234271 7.50032553 18.06549769 9.4135592 8.75226486 2.4544211 25.89505847 0.18793244 38.14879457-2.0135573 6.22012729-1.25335194 11.35222657-2.37246543 14.0680574-2.8670246 0.03956524 0-5.95023919 1.41584928-14.0680574 2.8670246z m140.57176509-109.89362314z" fill="#afcd50" p-id="4399"></path></svg>