<?xml version="1.0" standalone="no"?><!DOCTYPE svg PUBLIC "-//W3C//DTD SVG 1.1//EN" "http://www.w3.org/Graphics/SVG/1.1/DTD/svg11.dtd"><svg t="1726049730741" class="icon" viewBox="0 0 1024 1024" version="1.1" xmlns="http://www.w3.org/2000/svg" p-id="18318" xmlns:xlink="http://www.w3.org/1999/xlink" width="200" height="200"><path d="M296.078222 859.363556l48.668445 12.714666s41.898667-163.555556 75.264-225.621333c0 0 22.328889-11.207111 26.368 5.603555 0 0-30.606222 93.098667 84.821333 153.656889l5.518222-39.424s58.481778 66.133333 107.150222 73.244445V807.253333s76.544 4.295111 119.694223-8.391111l-27.847111-32.341333s108.430222-1.507556 146.062222-59.249778c0 0-72.277333 1.507556-108.430222-52.167111l41.671111-8.391111s-45.909333-57.742222-111.388445-54.954667l43.150222-25.429333s-100.124444-29.525333-142.023111-7.111111l19.569778-26.737778s-98.872889-2.787556-155.847111 74.808889c0 0-34.872889 22.613333-9.784889-19.626667 0 0 40.391111-60.757333 94.606222-107.093333 0 0 82.062222 46.535111 187.733334-39.424l-27.847111-4.323556s54.215111-39.424 75.036444-71.964444l-27.847111-8.419556s44.430222-42.211556 58.481778-78.848l-38.912-4.323555s-4.266667-70.456889 54.215111-117.020445c0 0-59.733333-35.328-98.872889 11.434667L728.291556 142.222222s-84.849778 23.893333-104.391112 81.891556l-11.064888-32.341334s-75.036444 46.563556-83.541334 100.209778l-19.569778-36.636444s-44.430222 152.348444 25.088 205.795555l-69.518222 80.384s34.872889-64.853333 20.849778-140.942222c0 0-15.331556 17.038222-32.142222 17.038222 0 0 4.266667-67.669333-16.554667-100.209777l-16.782222 31.032888s-32.142222-64.853333-61.240889-77.568l1.28 31.004445s-59.733333-38.115556-105.671111-38.115556c0 0-107.150222 4.295111-112.668445-42.24 0 0-4.266667 157.952 34.872889 170.666667l-23.608889-1.507556s13.824 60.558222 68.266667 105.813334l-40.419555 9.898666s73.784889 56.462222 123.733333 62.065778l-16.583111 28.216889s80.782222 7.111111 158.606222-32.312889c0.426667-1.080889-154.140444 224.540444-151.153778 294.997334z" fill="#69B763" p-id="18319"></path></svg>